<?xml version="1.0" encoding="UTF-8" standalone="no"?>
<svg
   xmlns:dc="http://purl.org/dc/elements/1.1/"
   xmlns:cc="http://creativecommons.org/ns#"
   xmlns:rdf="http://www.w3.org/1999/02/22-rdf-syntax-ns#"
   xmlns:svg="http://www.w3.org/2000/svg"
   xmlns="http://www.w3.org/2000/svg"
   viewBox="0 0 375 121.25"
   height="121.25"
   width="375"
   xml:space="preserve"
   version="1.1"
   id="svg2"><metadata
     id="metadata8"><rdf:RDF><cc:Work
         rdf:about=""><dc:format>image/svg+xml</dc:format><dc:type
           rdf:resource="http://purl.org/dc/dcmitype/StillImage" /></cc:Work></rdf:RDF></metadata><defs
     id="defs6" /><g
     transform="matrix(1.25,0,0,-1.25,0,121.25)"
     id="g10"><g
       transform="scale(0.1,0.1)"
       id="g12"><path
         id="path14"
         style="fill:#7a949e;fill-opacity:1;fill-rule:nonzero;stroke:none"
         d="m 516.051,637.324 -69.582,-81.179 102.922,-88.422 69.578,82.625 -102.918,86.976" /><path
         id="path16"
         style="fill:#7a949e;fill-opacity:1;fill-rule:nonzero;stroke:none"
         d="m 416.027,523.531 -52.183,-94.222 117.414,-65.231 52.187,94.223 -117.418,65.23" /><path
         id="path18"
         style="fill:#7a949e;fill-opacity:1;fill-rule:nonzero;stroke:none"
         d="M 350.797,393.07 321.805,288.699 452.27,253.91 481.258,356.828 350.797,393.07" /><path
         id="path20"
         style="fill:#7a949e;fill-opacity:1;fill-rule:nonzero;stroke:none"
         d="m 584.902,516.281 -15.945,-15.945 c 50.738,-50.734 107.512,-92.289 170.328,-124.66 62.813,-31.891 126.594,-56.535 191.344,-73.93 64.262,-17.394 124.421,-29.476 180.471,-36.238 -23.68,-1.449 -46.87,-2.176 -69.58,-2.176 -82.625,0.965 -156.797,9.18 -222.508,24.645 -65.715,15.461 -121.766,33.339 -168.153,53.632 -46.386,20.778 -81.66,38.899 -105.82,54.36 -24.641,15.461 -36.961,23.676 -36.961,24.64 l -14.496,-18.843 c 52.184,-38.172 107.266,-68.856 165.25,-92.047 57.984,-23.196 115.965,-40.348 173.949,-51.461 58.465,-10.629 114.516,-16.43 168.149,-17.395 -44.934,-5.316 -87.938,-7.73 -129.012,-7.246 -62.813,0.481 -119.59,4.832 -170.324,13.043 -50.735,8.699 -94.465,18.606 -131.188,29.719 -36.238,11.113 -64.019,21.019 -83.347,29.715 -19.813,8.215 -29.719,12.562 -29.719,13.047 l -10.145,-18.844 c 59.43,-32.859 125.629,-56.535 198.59,-71.031 72.961,-14.496 147.617,-21.5 223.961,-21.016 55.082,0 108.719,3.141 160.904,9.422 52.18,5.797 100.99,13.769 146.4,23.918 45.91,10.629 86.25,22.469 121.04,35.512 l -10.14,14.496 c -80.21,1.933 -155.59,10.632 -226.14,26.093 -71.025,15.461 -135.533,34.067 -193.513,55.809 -57.984,22.227 -108.234,44.211 -150.758,65.957 -42.035,21.742 -74.652,39.863 -97.844,54.356 -22.711,14.496 -34.308,21.988 -34.793,22.468" /><path
         id="path22"
         style="fill:#e33000;fill-opacity:1;fill-rule:nonzero;stroke:none"
         d="m 433.422,785.902 c -22.227,0 -44.453,-2.414 -66.68,-7.246 -57.5,-13.047 -106.543,-38.414 -147.133,-76.101 -41.07,-37.692 -70.304,-82.629 -87.699,-134.813 -17.394,-52.668 -20.293,-107.992 -8.695,-165.976 11.113,-49.77 31.89,-93.254 62.332,-130.461 29.957,-37.688 66.195,-67.164 108.719,-88.426 43.004,-20.777 88.906,-31.406 137.707,-31.891 22.711,0 45.422,2.418 68.132,7.25 l 7.247,1.45 c -21.743,-4.348 -43.489,-6.524 -65.231,-6.524 -47.836,0.484 -92.773,10.871 -134.812,31.164 -42.036,20.777 -77.793,49.527 -107.266,86.25 -29.961,37.207 -50.254,79.969 -60.883,128.289 -11.113,56.535 -8.215,110.41 8.695,161.629 17.395,50.734 45.665,94.461 84.801,131.184 39.621,36.722 87.215,61.367 142.785,73.929 21.258,4.832 42.278,7.008 63.055,6.524 48.32,-0.485 93.981,-10.871 136.984,-31.164 42.524,-20.297 78.762,-48.805 108.719,-85.528 30.442,-36.238 51.219,-78.757 62.332,-127.562 l -1.449,7.25 c -11.598,50.25 -32.617,93.98 -63.059,131.184 -30.437,37.691 -67.16,66.921 -110.164,87.699 -43.007,20.777 -89.152,31.41 -138.437,31.89" /><path
         id="path24"
         style="fill:#072b61;fill-opacity:1;fill-rule:nonzero;stroke:none"
         d="m 1042.77,701.191 0,0 c 0,0 0,-12.175 -3.48,-24.703 l 0,0 c 0,0 -6.26,-25.742 -22.96,-44.066 l 0,0 c 0,0 -16.701,-18.207 -44.185,-24.469 l 0,0 35.485,-104.715 -58.794,0 -30.965,97.758 -61.578,0 -24.352,-97.758 -52.535,0 62.278,250.137 129.066,0 c 0,0 5.219,0 8.699,0 l 0,0 c 0,0 3.481,0 10.438,-1.043 l 0,0 c 0,0 6.957,-1.043 10.663,-1.625 l 0,0 c 0,0 3.6,-0.461 11.95,-2.551 l 0,0 c 0,0 20.18,-5.218 27.14,-26.789 l 0,0 c 0,0 3.13,-9.39 3.13,-20.176 l 0,0 z m -54.622,-13.57 0,0 c 0,0 0,7.656 -4.175,12.527 l 0,0 c 0,0 -8.004,8.348 -36.532,8.348 l -64.359,0 -15.656,-63.316 64.363,0 c 0,0 28.875,0 40.703,8.695 l 0,0 c 0,0 10.09,8.004 14.262,23.313 l 0,0 c 0,0 1.394,5.214 1.394,10.433 l 0,0 z m 253.622,-1.043 0,0 -9.4,-37.922 -64.01,0 c 0,0 -22.61,0 -33.75,-5.914 l 0,0 c 0,0 -14.96,-7.652 -20.18,-28.875 l 109.24,0 -9.39,-38.617 -109.24,0 c 0,0 -1.39,-6.262 -1.51,-7.535 l 0,0 c 0,0 -0.23,-1.16 -0.23,-5.336 l 0,0 c 0,0 0,-11.133 7.54,-16.234 l 0,0 c 0,0 7.42,-4.989 94.74,-4.989 l 0,0 -9.39,-37.918 -70.62,0 c 0,0 -44.19,0 -62.62,23.657 l 0,0 c 0,0 -11.14,14.957 -11.14,37.574 l 0,0 c 0,0 0,13.566 4.18,30.961 l 0,0 c 0,0 11.13,44.879 40.35,67.957 l 0,0 c 0,0 29.23,23.191 145.43,23.191 l 0,0 z m 205.25,0 0,0 -44.53,-178.473 c 0,0 -8.35,-34.789 -29.57,-52.761 l 0,0 c 0,0 -21.22,-17.86 -151.68,-17.86 l 0,0 9.39,37.227 86.28,0 c 0,0 29.57,0 36.18,28.527 l 0,0 -57.75,0.696 c 0,0 -28.53,2.433 -39.31,16.004 l 0,0 c 0,0 -3.48,4.519 -3.48,18.089 l 0,0 c 0,0 0,38.618 27.49,148.551 l 47.31,0 -27.14,-109.238 c 0,0 -1.39,-5.914 -2.08,-9.742 l 0,0 c 0,0 -0.7,-3.828 -0.7,-7.653 l 0,0 c 0,0 0,-5.914 2.09,-9.047 l 0,0 c 0,0 4.52,-7.652 24.35,-7.652 l 39.31,0 35.49,143.332 48.35,0 z m 184.39,-36.18 0,0 c 0,0 0,-39.312 -26.79,-147.16 l -49.05,0 27.48,109.934 c 0,0 1.4,5.914 2.09,9.742 l 0,0 c 0,0 0.7,3.828 0.7,7.652 l 0,0 c 0,0 0,5.914 -2.09,9.047 l 0,0 c 0,0 -4.87,6.262 -63.32,6.262 l 0,0 -35.48,-142.637 -48.02,0 45.58,183.34 90.8,0 c 0,0 38.97,0 52.88,-13.914 l 0,0 c 0,0 5.22,-4.871 5.22,-22.266 l 0,0 z m 222.66,-28.527 0,0 c 0,0 0,-13.223 -3.48,-26.789 l 0,0 c 0,0 -11.14,-42.793 -44.3,-69.23 l 0,0 c 0,0 -33.29,-26.442 -76.77,-26.442 l 0,0 c 0,0 -43.14,0 -63.67,26.094 l 0,0 c 0,0 -13.56,17.394 -13.56,41.746 l 0,0 c 0,0 0,5.566 1.04,12.988 l 0,0 c 0,0 1.04,7.539 2.78,14.844 l 0,0 c 0,0 10.44,42.445 44.53,68.883 l 0,0 c 0,0 34.09,26.441 76.54,26.441 l 0,0 c 0,0 43.14,0 63.32,-26.441 l 0,0 c 0,0 13.57,-17.395 13.57,-42.094 l 0,0 z m -51.49,-8.351 0,0 c 0,0 0,11.132 -4.18,19.484 l 0,0 c 0,0 -7.65,17.047 -30.96,17.047 l 0,0 c 0,0 -22.62,0 -40.01,-16.699 l 0,0 c 0,0 -15.31,-15.309 -21.22,-38.965 l 0,0 c 0,0 -2.44,-9.395 -2.44,-18.09 l 0,0 c 0,0 0,-11.481 4.53,-20.18 l 0,0 c 0,0 8.34,-17.047 30.96,-17.047 l 0,0 c 0,0 21.92,0 39.31,16.7 l 0,0 c 0,0 15.66,15.308 21.57,38.964 l 0,0 c 0,0 2.44,9.395 2.44,18.786 l 0,0 z m 158.29,139.855 0,0 -62.27,-250.137 -50.1,0 62.27,250.137 50.1,0 z m 211.52,0 0,0 -62.27,-250.137 -93.24,0 c 0,0 -6.96,0 -13.57,0 l 0,0 c 0,0 -5.22,1.043 -7.65,1.391 l 0,0 c 0,0 -9.74,1.738 -16.35,5.219 l 0,0 -9.4,5.218 -4.87,3.825 c 0,0 -12.87,12.875 -17.04,31.66 l 0,0 c 0,0 -2.09,9.047 -2.09,17.742 l 0,0 c 0,0 0,9.742 2.79,21.57 l 0,0 c 0,0 4.86,18.785 11.13,33.746 l 0,0 c 0,0 8.35,18.438 21.22,30.266 l 0,0 c 0,0 19.13,18.789 40.35,26.441 l 0,0 c 0,0 9.74,3.133 19.14,4.872 l 0,0 c 0,0 9.39,1.738 22.26,1.738 l 0,0 43.84,-0.348 16.7,66.797 49.05,0 z m -75.49,-106.805 0,0 -4.18,0.348 -20.52,0 -11.83,-0.348 -11.83,-0.347 c 0,0 -5.91,-0.696 -11.48,-3.133 l 0,0 c 0,0 -5.57,-2.434 -11.48,-6.61 l 0,0 c 0,0 -9.74,-6.957 -17.05,-21.917 l 0,0 c 0,0 -5.22,-10.434 -10.44,-31.657 l 0,0 c 0,0 -1.73,-7.308 -1.73,-9.047 l 0,0 c 0,0 0,-1.738 0,-3.129 l 0,0 c 0,0 0,-12.179 7.65,-19.484 l 0,0 c 0,0 10.78,-9.043 38.96,-9.043 l 13.92,0 13.91,0.348 26.1,104.019 z m 271.36,40.008 0,0 -9.39,-37.922 -85.59,0 c 0,0 -18.09,0 -22.26,-1.39 l 0,0 c 0,0 -12.18,-3.825 -15.31,-17.395 l 0,0 -0.35,-3.129 c 0,0 0,-11.48 22.96,-11.48 l 0,0 53.58,-1.047 c 0,0 31.31,-4.172 36.53,-27.832 l 0,0 0.7,-7.653 c 0,0 0,-9.046 -3.14,-21.57 l 0,0 c 0,0 -4.52,-18.09 -21.57,-35.137 l 0,0 c 0,0 -18.44,-18.785 -42.44,-18.785 l -124.2,0 9.39,37.918 101.94,0 c 0,0 11.48,0 18.44,3.481 l 0,0 c 0,0 9.39,4.523 11.83,14.961 l 0,0 0.69,4.519 c 0,0 0,5.914 -5.34,9.512 l 0,0 c 0,0 -5.44,3.711 -17.97,3.711 l 0,0 -28.87,-0.348 -5.57,0 c 0,0 -8.35,0 -16.35,0 l 0,0 c 0,0 -6.61,1.043 -9.4,1.391 l 0,0 c 0,0 -18.09,2.086 -25.04,8 l 0,0 c 0,0 -3.83,3.133 -6.03,7.769 l 0,0 c 0,0 -2.32,4.758 -2.32,11.02 l 0,2.781 c 0,0 0,10.785 4.87,30.617 l 0,0 c 0,0 4.87,19.828 25.28,33.86 l 0,0 c 0,0 20.29,14.148 154.93,14.148 l 0,0 z m 207.35,-64.707 0,0 c 0,0 0,-13.223 -3.48,-26.789 l 0,0 c 0,0 -11.14,-42.793 -44.3,-69.23 l 0,0 c 0,0 -33.28,-26.442 -76.77,-26.442 l 0,0 c 0,0 -43.14,0 -63.67,26.094 l 0,0 c 0,0 -13.57,17.394 -13.57,41.746 l 0,0 c 0,0 0,5.566 1.05,12.988 l 0,0 c 0,0 1.04,7.539 2.78,14.844 l 0,0 c 0,0 10.44,42.445 44.53,68.883 l 0,0 c 0,0 34.1,26.441 76.54,26.441 l 0,0 c 0,0 43.14,0 63.32,-26.441 l 0,0 c 0,0 13.57,-17.395 13.57,-42.094 l 0,0 z m -51.49,-8.351 0,0 c 0,0 0,11.132 -4.18,19.484 l 0,0 c 0,0 -7.65,17.047 -30.96,17.047 l 0,0 c 0,0 -22.61,0 -40.01,-16.699 l 0,0 c 0,0 -15.31,-15.309 -21.22,-38.965 l 0,0 c 0,0 -2.44,-9.395 -2.44,-18.09 l 0,0 c 0,0 0,-11.481 4.53,-20.18 l 0,0 c 0,0 8.35,-17.047 30.96,-17.047 l 0,0 c 0,0 21.92,0 39.31,16.7 l 0,0 c 0,0 15.66,15.308 21.57,38.964 l 0,0 c 0,0 2.44,9.395 2.44,18.786 l 0,0 z m 249.44,36.878 0,0 c 0,0 0,-39.312 -26.79,-147.16 l -49.05,0 27.48,109.934 c 0,0 1.39,5.914 2.09,9.742 l 0,0 c 0,0 0.69,3.828 0.69,7.652 l 0,0 c 0,0 0,5.914 -2.08,9.047 l 0,0 c 0,0 -4.87,6.262 -63.32,6.262 l 0,0 -35.49,-142.637 -48,0 45.57,183.34 90.8,0 c 0,0 38.97,0 52.88,-13.914 l 0,0 c 0,0 5.22,-4.871 5.22,-22.266 l 0,0" /><path
         id="path26"
         style="fill:#072b61;fill-opacity:1;fill-rule:nonzero;stroke:none"
         d="m 1528.46,409.848 0,0 -8.87,-36.371 -73.34,0 c 0,0 -21.59,0 -36.97,-11.829 l 0,0 c 0,0 -13.01,-10.351 -22.17,-28.98 l 0,0 c 0,0 -7.1,-14.488 -12.43,-36.078 l 0,0 c 0,0 -4.14,-17.445 -4.14,-29.274 l 0,0 0.3,-6.8 c 0,0 2.66,-20.11 18.93,-24.547 l 0,0 c 0,0 4.43,-1.477 9.46,-1.477 l 0,0 85.46,-0.297 -9.17,-36.965 -75.11,0 -18.63,0.887 c 0,0 -5.03,0 -7.69,0.395 l 0,0 c 0,0 -2.66,0.492 -9.16,2.269 l 0,0 c 0,0 -29.87,7.985 -39.04,37.555 l 0,0 c 0,0 -4.43,13.898 -4.43,28.094 l 0,0 c 0,0 0,12.418 3.54,26.316 l 0,0 c 0,0 7.1,28.981 16.27,47.609 l 0,0 c 0,0 11.24,23.067 25.73,37.852 l 0,0 c 0,0 17.44,17.742 38.44,24.25 l 0,0 c 0,0 11.53,3.844 24.54,5.617 l 0,0 c 0,0 13.02,1.774 98.48,1.774 l 0,0 z m 160.27,-111.778 0,0 c 0,0 0,-11.238 -2.96,-22.769 l 0,0 c 0,0 -9.46,-36.375 -37.65,-58.848 l 0,0 c 0,0 -28.29,-22.476 -65.25,-22.476 l 0,0 c 0,0 -36.67,0 -54.12,22.179 l 0,0 c 0,0 -11.53,14.785 -11.53,35.489 l 0,0 c 0,0 0,4.73 0.89,11.039 l 0,0 c 0,0 0.88,6.406 2.36,12.617 l 0,0 c 0,0 8.87,36.074 37.85,58.551 l 0,0 c 0,0 28.98,22.472 65.06,22.472 l 0,0 c 0,0 36.67,0 53.82,-22.472 l 0,0 c 0,0 11.53,-14.786 11.53,-35.782 l 0,0 z m -43.77,-7.097 0,0 c 0,0 0,9.461 -3.54,16.558 l 0,0 c 0,0 -6.51,14.492 -26.32,14.492 l 0,0 c 0,0 -19.22,0 -34.01,-14.195 l 0,0 c 0,0 -13.01,-13.012 -18.04,-33.121 l 0,0 c 0,0 -2.07,-7.984 -2.07,-15.375 l 0,0 c 0,0 0,-9.758 3.85,-17.152 l 0,0 c 0,0 7.1,-14.489 26.32,-14.489 l 0,0 c 0,0 18.63,0 33.41,14.192 l 0,0 c 0,0 13.31,13.012 18.34,33.121 l 0,0 c 0,0 2.06,7.984 2.06,15.969 l 0,0 z m 212.03,31.343 0,0 c 0,0 0,-33.414 -22.77,-125.086 l -41.69,0 23.36,93.446 c 0,0 1.18,5.027 1.77,8.281 l 0,0 c 0,0 0.59,3.254 0.59,6.504 l 0,0 c 0,0 0,5.027 -1.77,7.691 l 0,0 c 0,0 -4.14,5.321 -53.82,5.321 l 0,0 -30.16,-121.243 -40.81,0 38.74,155.844 77.18,0 c 0,0 33.12,0 44.95,-11.832 l 0,0 c 0,0 4.43,-4.137 4.43,-18.926 l 0,0 z m 141.95,30.758 0,0 -7.69,-31.051 -44.06,0 -15.68,-62.988 c 0,0 -1.18,-3.844 -1.47,-6.801 l 0,0 c 0,0 -0.3,-2.957 -0.3,-6.507 l 0,0 c 0,0 0,-5.321 1.77,-8.872 l 0,0 c 0,0 3.55,-5.914 13.61,-7.687 l 0,0 c 0,0 5.02,-0.887 16.56,-0.887 l 6.21,0 -7.69,-31.051 -37.56,0 c 0,0 -23.07,0 -31.94,12.715 l 0,0 c 0,0 -2.66,3.551 -2.66,13.606 l 0,0 c 0,0 0,27.203 18.04,98.472 l -28.68,0 7.69,31.051 28.68,0 14.19,56.774 41.11,0 -14.19,-56.774 44.06,0 z m 134.84,-21.293 0,0 c 0,0 0,-14.492 -7.1,-43.765 l -39.03,0 3.84,13.011 c 0,0 1.78,7.688 1.78,12.125 l 0,0 c 0,0 0,7.391 -4.44,8.871 l 0,0 -6.5,0.887 -18.63,0.297 -31.35,-125.977 -40.81,0 38.74,155.844 69.2,0 c 0,0 25.73,0 32.23,-10.054 l 0,0 c 0,0 2.07,-2.957 2.07,-11.239 l 0,0 z m 174.18,-33.711 0,0 c 0,0 0,-11.238 -2.96,-22.769 l 0,0 c 0,0 -9.46,-36.375 -37.66,-58.848 l 0,0 c 0,0 -28.29,-22.476 -65.25,-22.476 l 0,0 c 0,0 -36.67,0 -54.11,22.179 l 0,0 c 0,0 -11.54,14.785 -11.54,35.489 l 0,0 c 0,0 0,4.73 0.89,11.039 l 0,0 c 0,0 0.88,6.406 2.37,12.617 l 0,0 c 0,0 8.87,36.074 37.85,58.551 l 0,0 c 0,0 28.98,22.472 65.06,22.472 l 0,0 c 0,0 36.66,0 53.81,-22.472 l 0,0 c 0,0 11.54,-14.786 11.54,-35.782 l 0,0 z m -43.77,-7.097 0,0 c 0,0 0,9.461 -3.55,16.558 l 0,0 c 0,0 -6.5,14.492 -26.32,14.492 l 0,0 c 0,0 -19.22,0 -34,-14.195 l 0,0 c 0,0 -13.02,-13.012 -18.04,-33.121 l 0,0 c 0,0 -2.07,-7.984 -2.07,-15.375 l 0,0 c 0,0 0,-9.758 3.84,-17.152 l 0,0 c 0,0 7.1,-14.489 26.32,-14.489 l 0,0 c 0,0 18.63,0 33.42,14.192 l 0,0 c 0,0 13.3,13.012 18.33,33.121 l 0,0 c 0,0 2.07,7.984 2.07,15.969 l 0,0 z m 134.55,118.875 0,0 -52.93,-212.618 -42.58,0 52.93,212.618 42.58,0" /></g></g></svg>